# xmcd
#
# Track frame offsets: 
#        150
#        22355
#        51533
#        71641
#        91061
#        115516
#        139566
#        164006
#        189633
#        216998
#        238061
#        259104
#        284263
#        304322
#        331207
#
# Disc length: 4774 seconds
#
# Revision: 2
# Processed by: cddbd v1.5.2PL0 Copyright (c) Steve Scherf et al.
# Submitted via: ExactAudioCopy v1.3
#
DISCID=e712a40f
DTITLE=Leonard Cohen - Ten New Songs and 5 Bonus
DYEAR=2001
DGENRE=Blues
TTITLE0=In My Secret Life
TTITLE1=A Thoursand Kisses Deep
TTITLE2=That Don't Make It Junk
TTITLE3=Here it is
TTITLE4=Love Itself
TTITLE5=By The Rivers Dark
TTITLE6=Alexandra Leaving
TTITLE7=You Have Loved Enough
TTITLE8=Boogie Street
TTITLE9=The Land of Plenty
TTITLE10=Dance With Me To The End of Love
TTITLE11=Everybody Knows
TTITLE12=I'm Your Man
TTITLE13=Take This Waltz
TTITLE14=First We Take Manhattan
EXTD=
EXTT0=
EXTT1=
EXTT2=
EXTT3=
EXTT4=
EXTT5=
EXTT6=
EXTT7=
EXTT8=
EXTT9=
EXTT10=
EXTT11=
EXTT12=
EXTT13=
EXTT14=
PLAYORDER=
